# xmcd
#
# Track frame offsets: 
#        150
#        21457
#        43654
#        77019
#        100023
#        131211
#        165063
#        194482
#        216502
#
# Disc length: 3224 seconds
#
# Revision: 2
# Processed by: cddbd v1.5.2PL0 Copyright (c) Steve Scherf et al.
# Submitted via: ExactAudioCopy v0.99pb5
#
DISCID=780c9609
DTITLE=Helge Lien Trio - Hello Troll
DYEAR=2008
DGENRE=Jazz
TTITLE0=Gamut Warning
TTITLE1=Axis Of Free Will
TTITLE2=Radio
TTITLE3=Troozee
TTITLE4=Diverted Dance
TTITLE5=It Is What It Is, But It Is
TTITLE6=Halla Troll
TTITLE7=Snurt
TTITLE8=In The Wind Somewhere
EXTD=YEAR: 2008
EXTT0=
EXTT1=
EXTT2=
EXTT3=
EXTT4=
EXTT5=
EXTT6=
EXTT7=
EXTT8=
PLAYORDER=
